<svg xmlns="http://www.w3.org/2000/svg" viewBox="0 0 64 64"><g data-name="Layer 45"><polygon fill="gray" points="11 1 53 1 60 8 60 22 53 29 11 29 4 22 4 8 11 1"/><path d="M53.41,30H10.59L3,22.41V7.59L10.59,0H53.41L61,7.59V22.41Zm-42-2H52.59L59,21.59V8.41L52.59,2H11.41L5,8.41V21.59Z"/><polygon fill="gray" points="7 9 11 5 11 25 7 21 7 9"/><path d="M12,27.41l-6-6V8.59l6-6ZM8,20.59l2,2V7.41l-2,2Z"/><polygon fill="gray" points="57 9 53 5 53 25 57 21 57 9"/><path d="M52,27.41V2.59l6,6V21.41Zm2-20V22.59l2-2V9.41Z"/><polygon points="50 27 39.59 27 37.59 25 26.41 25 24.41 27 14 27 14 25 23.59 25 25.59 23 38.41 23 40.41 25 50 25 50 27"/><rect width="8" height="25" x="28" y="29" fill="#d21f23"/><path d="M37,55H27V28H37Zm-8-2h6V30H29Z"/><path fill="gray" d="M36,63H28c-1.38,0-2.27-.91-2-2l2-7h8l2,7C38.27,62.09,37.38,63,36,63Z"/><path d="M36,64H28a3.15,3.15,0,0,1-2.53-1.12A2.43,2.43,0,0,1,25,60.76L27.25,53h9.51L39,60.73a2.45,2.45,0,0,1-.43,2.16A3.15,3.15,0,0,1,36,64Zm-7.25-9L27,61.27a.43.43,0,0,0,.08.38A1.21,1.21,0,0,0,28,62h8a1.21,1.21,0,0,0,1-.35.45.45,0,0,0,.07-.41L35.25,55Z"/><rect width="9.43" height="2" x="27.28" y="32.5" transform="rotate(-31.8 32.146 33.419)"/><rect width="9.43" height="2" x="27.28" y="41.5" transform="rotate(-31.8 32.18 42.428)"/><rect width="9.43" height="2" x="27.28" y="49.5" transform="rotate(-31.8 32.216 50.438)"/></g></svg>