<svg id="visual" viewBox="0 0 960 540" width="960" height="540" xmlns="http://www.w3.org/2000/svg" xmlns:xlink="http://www.w3.org/1999/xlink" version="1.1"><path d="M0 127L12.3 128.3C24.7 129.7 49.3 132.3 74 128.3C98.7 124.3 123.3 113.7 148 115.3C172.7 117 197.3 131 221.8 138.3C246.3 145.7 270.7 146.3 295.2 138.7C319.7 131 344.3 115 369 111.7C393.7 108.3 418.3 117.7 443 123.2C467.7 128.7 492.3 130.3 517 125.3C541.7 120.3 566.3 108.7 591 105.2C615.7 101.7 640.3 106.3 664.8 105.8C689.3 105.3 713.7 99.7 738.2 99.8C762.7 100 787.3 106 812 110.5C836.7 115 861.3 118 886 119.5C910.7 121 935.3 121 947.7 121L960 121L960 0L947.7 0C935.3 0 910.7 0 886 0C861.3 0 836.7 0 812 0C787.3 0 762.7 0 738.2 0C713.7 0 689.3 0 664.8 0C640.3 0 615.7 0 591 0C566.3 0 541.7 0 517 0C492.3 0 467.7 0 443 0C418.3 0 393.7 0 369 0C344.3 0 319.7 0 295.2 0C270.7 0 246.3 0 221.8 0C197.3 0 172.7 0 148 0C123.3 0 98.7 0 74 0C49.3 0 24.7 0 12.3 0L0 0Z" fill="#4a39ef"></path><path d="M0 91L12.3 94.5C24.7 98 49.3 105 74 106.8C98.7 108.7 123.3 105.3 148 106.8C172.7 108.3 197.3 114.7 221.8 114.7C246.3 114.7 270.7 108.3 295.2 102.8C319.7 97.3 344.3 92.7 369 93C393.7 93.3 418.3 98.7 443 103.2C467.7 107.7 492.3 111.3 517 110.2C541.7 109 566.3 103 591 102.5C615.7 102 640.3 107 664.8 110C689.3 113 713.7 114 738.2 110.7C762.7 107.3 787.3 99.7 812 100.8C836.7 102 861.3 112 886 115.3C910.7 118.7 935.3 115.3 947.7 113.7L960 112L960 0L947.7 0C935.3 0 910.7 0 886 0C861.3 0 836.7 0 812 0C787.3 0 762.7 0 738.2 0C713.7 0 689.3 0 664.8 0C640.3 0 615.7 0 591 0C566.3 0 541.7 0 517 0C492.3 0 467.7 0 443 0C418.3 0 393.7 0 369 0C344.3 0 319.7 0 295.2 0C270.7 0 246.3 0 221.8 0C197.3 0 172.7 0 148 0C123.3 0 98.7 0 74 0C49.3 0 24.7 0 12.3 0L0 0Z" fill="#4a39ef"></path><path d="M0 82L12.3 79.3C24.7 76.7 49.3 71.3 74 71.8C98.7 72.3 123.3 78.7 148 82.3C172.7 86 197.3 87 221.8 88.5C246.3 90 270.7 92 295.2 88C319.7 84 344.3 74 369 74.7C393.7 75.3 418.3 86.7 443 91.2C467.7 95.7 492.3 93.3 517 89.7C541.7 86 566.3 81 591 80.5C615.7 80 640.3 84 664.8 83.5C689.3 83 713.7 78 738.2 73.5C762.7 69 787.3 65 812 63.8C836.7 62.7 861.3 64.3 886 69.7C910.7 75 935.3 84 947.7 88.5L960 93L960 0L947.7 0C935.3 0 910.7 0 886 0C861.3 0 836.7 0 812 0C787.3 0 762.7 0 738.2 0C713.7 0 689.3 0 664.8 0C640.3 0 615.7 0 591 0C566.3 0 541.7 0 517 0C492.3 0 467.7 0 443 0C418.3 0 393.7 0 369 0C344.3 0 319.7 0 295.2 0C270.7 0 246.3 0 221.8 0C197.3 0 172.7 0 148 0C123.3 0 98.7 0 74 0C49.3 0 24.7 0 12.3 0L0 0Z" fill="#4a39ef"></path><path d="M0 54L12.3 53.5C24.7 53 49.3 52 74 55.2C98.7 58.3 123.3 65.7 148 69.7C172.7 73.7 197.3 74.3 221.8 72C246.3 69.7 270.7 64.3 295.2 60C319.7 55.7 344.3 52.3 369 50.8C393.7 49.3 418.3 49.7 443 51C467.7 52.3 492.3 54.7 517 58.8C541.7 63 566.3 69 591 71.7C615.7 74.3 640.3 73.7 664.8 71.3C689.3 69 713.7 65 738.2 64.7C762.7 64.3 787.3 67.7 812 64.7C836.7 61.7 861.3 52.3 886 48C910.7 43.7 935.3 44.3 947.7 44.7L960 45L960 0L947.7 0C935.3 0 910.7 0 886 0C861.3 0 836.7 0 812 0C787.3 0 762.7 0 738.2 0C713.7 0 689.3 0 664.8 0C640.3 0 615.7 0 591 0C566.3 0 541.7 0 517 0C492.3 0 467.7 0 443 0C418.3 0 393.7 0 369 0C344.3 0 319.7 0 295.2 0C270.7 0 246.3 0 221.8 0C197.3 0 172.7 0 148 0C123.3 0 98.7 0 74 0C49.3 0 24.7 0 12.3 0L0 0Z" fill="#4a39ef"></path><path d="M0 60L12.3 54.5C24.7 49 49.3 38 74 35.8C98.7 33.7 123.3 40.3 148 45.5C172.7 50.7 197.3 54.3 221.8 54C246.3 53.7 270.7 49.3 295.2 45.2C319.7 41 344.3 37 369 35C393.7 33 418.3 33 443 36.3C467.7 39.7 492.3 46.3 517 46.7C541.7 47 566.3 41 591 41.8C615.7 42.7 640.3 50.3 664.8 50.2C689.3 50 713.7 42 738.2 37.3C762.7 32.7 787.3 31.3 812 30.7C836.7 30 861.3 30 886 33.2C910.7 36.3 935.3 42.7 947.7 45.8L960 49L960 0L947.7 0C935.3 0 910.7 0 886 0C861.3 0 836.7 0 812 0C787.3 0 762.7 0 738.2 0C713.7 0 689.3 0 664.8 0C640.3 0 615.7 0 591 0C566.3 0 541.7 0 517 0C492.3 0 467.7 0 443 0C418.3 0 393.7 0 369 0C344.3 0 319.7 0 295.2 0C270.7 0 246.3 0 221.8 0C197.3 0 172.7 0 148 0C123.3 0 98.7 0 74 0C49.3 0 24.7 0 12.3 0L0 0Z" fill="#4a39ef"></path><path d="M0 36L12.3 32.2C24.7 28.3 49.3 20.7 74 16.3C98.7 12 123.3 11 148 13.5C172.7 16 197.3 22 221.8 24.8C246.3 27.7 270.7 27.3 295.2 24.3C319.7 21.3 344.3 15.7 369 13.7C393.7 11.7 418.3 13.3 443 15.2C467.7 17 492.3 19 517 21.5C541.7 24 566.3 27 591 25.5C615.7 24 640.3 18 664.8 17.7C689.3 17.3 713.7 22.7 738.2 26.8C762.7 31 787.3 34 812 34.7C836.7 35.3 861.3 33.7 886 29.3C910.7 25 935.3 18 947.7 14.5L960 11L960 0L947.7 0C935.3 0 910.7 0 886 0C861.3 0 836.7 0 812 0C787.3 0 762.7 0 738.2 0C713.7 0 689.3 0 664.8 0C640.3 0 615.7 0 591 0C566.3 0 541.7 0 517 0C492.3 0 467.7 0 443 0C418.3 0 393.7 0 369 0C344.3 0 319.7 0 295.2 0C270.7 0 246.3 0 221.8 0C197.3 0 172.7 0 148 0C123.3 0 98.7 0 74 0C49.3 0 24.7 0 12.3 0L0 0Z" fill="#4a39ef"></path></svg>